<?xml version="1.0" encoding="utf-8"?>
<!-- Generator: Adobe Illustrator 26.3.1, SVG Export Plug-In . SVG Version: 6.00 Build 0)  -->
<svg version="1.1" id="b" xmlns="http://www.w3.org/2000/svg" xmlns:xlink="http://www.w3.org/1999/xlink" x="0px" y="0px"
	 viewBox="0 0 923.9 444.2" style="enable-background:new 0 0 923.9 444.2;" xml:space="preserve">
<style type="text/css">
	.st0{fill:#00D586;}
</style>
<g id="c">
	<path class="st0" d="M838.2,86.2c-0.1-0.7-0.4-1.3-0.9-1.6c-0.5-0.3-1.3-0.6-1.9-0.6c-0.6,0-1.1,0.1-1.6,0.3
		c-0.5,0.2-0.7,0.4-1,0.7s-0.3,0.6-0.3,1c0,0.3,0.1,0.6,0.2,0.8c0.2,0.2,0.4,0.4,0.6,0.6c0.3,0.2,0.6,0.3,0.9,0.4
		c0.3,0.1,0.7,0.2,1.1,0.3l1.6,0.4c0.8,0.2,1.5,0.4,1.8,0.7c0.6,0.3,1.2,0.6,1.6,1.1c0.5,0.4,0.8,0.9,1.1,1.5
		c0.3,0.6,0.4,1.2,0.4,1.7c0,1.1-0.3,1.7-0.8,2.5c-0.5,0.8-1.3,1.4-2.1,1.6c-1.1,0.5-2,0.7-3.4,0.7c-1.5,0-2.4-0.2-3.5-0.7
		c-1.1-0.4-1.6-1.1-2.2-1.7c-0.6-0.9-0.9-1.7-0.9-2.9h3.4c0,0.6,0.2,1.1,0.5,1.5c0.3,0.4,0.7,0.7,1.2,0.9s1.1,0.3,1.6,0.3
		c0.5,0,1.2-0.1,1.6-0.3c0.5-0.2,0.8-0.4,1.1-0.8c0.3-0.3,0.4-0.7,0.4-1.1c0-0.4-0.1-0.7-0.4-1c-0.2-0.3-0.6-0.5-1-0.7
		c-0.4-0.2-1-0.4-1.6-0.5l-1.6-0.5c-1.5-0.4-2.4-0.9-3.3-1.6c-0.9-0.8-1.3-1.6-1.3-2.8c0-1.1,0.3-1.7,0.9-2.5
		c0.6-0.8,1.4-1.4,2.1-1.6c1-0.5,1.9-0.7,3.2-0.7c1.3,0,2.2,0.2,3.2,0.7c1,0.5,1.6,1.1,2,1.6c0.5,0.7,0.8,1.6,0.9,2.5L838.2,86.2
		L838.2,86.2z"/>
	<path class="st0" d="M844.2,81.4h4.4l4.6,11.1h0.2l4.6-11.1h4.4v16.3h-3.4V87.1h-0.2l-4.3,10.7h-2.2l-4.3-10.7h-0.2v10.7h-3.4
		C844.2,97.7,844.2,81.4,844.2,81.4z"/>
	<path class="st0" d="M775.8,337.4c-7.5,4.8-15.7,7-25,7s-17.6-2.2-25.1-7c-7.6-4.8-14.3-12.5-20.6-23.8
		c-6.3-11.3-11.1-27.4-14.5-48.8c-3.5-21.2-5.1-47.1-5.1-77.8s1.6-56.4,5.1-77.8s8.2-37.4,14.5-48.8c6.2-11.1,13.2-19.2,20.6-23.8
		c7.6-4.8,15.8-7,25.1-7c9.3,0,17.5,2.2,25,7c7.5,4.8,14.3,12.5,20.6,23.8s11.1,27.4,14.5,48.8c3.5,21.2,5.1,47.1,5.1,77.8
		s-1.6,56.4-5.1,77.8c-3.5,21.2-8.2,37.4-14.5,48.8C790,324.8,783.2,332.6,775.8,337.4z M744.3,299.7c1.6,3.7,3.8,5.3,6.4,5.3
		s4.8-1.7,6.3-5.3c1.6-3.7,3.1-14.5,4.7-33.1c1.6-18.5,2.2-44.9,2.2-79.5s-0.8-61.3-2.2-79.5c-1.5-18.2-3-29.4-4.7-33.1
		c-1.6-3.7-3.7-5.3-6.3-5.3s-4.8,1.7-6.4,5.3c-1.6,3.7-3.2,14.5-4.7,33.1c-1.6,18.3-2,44.9-2,79.5s0.8,61.3,2,79.5
		C741.1,284.8,742.7,296,744.3,299.7z"/>
	<path class="st0" d="M121.8,256.5V110.3h24.5c10.7,0,19.2,3.5,25.8,10.6c6.5,7.1,9.8,16.6,9.8,28.5c0,29.4-25,32.8-27.6,36
		c-1,1.2-0.9,2.6,0.1,3.8c2.2,2.7,26.6,3.8,26.6,26v36.7c0,2.6,0.4,4.8,1.3,6.5c0.8,1.6,1.6,2.6,2.1,3.1l1.2,0.6v2.1h-18.9
		c-3.4,0-5.9-1.1-7.7-3c-1.6-1.9-2.4-5.4-2.4-10.5v-37.8c0-7.5-3.3-11.1-10-11.1v55L121.8,256.5L121.8,256.5z M146.4,172.6h1.2
		c6.7,0,10-7.1,10-21s-3.3-21-10-21h-1.2V172.6L146.4,172.6z"/>
	<path class="st0" d="M258.9,220.8h30.5l0.3,17.5c0,18.6,2.9,27.9,8.7,27.8c2.5,0,4.6-1.4,5.6-4c1.3-2.6,1.7-7.8,1.7-15.1
		c0-7.6-1.6-14.8-4.8-22.2c-3.3-7.4-7.3-14.3-11.7-20.5c-4.7-6.3-9.2-12.8-13.9-19.5c-4.7-6.7-8.4-14.3-11.7-23.4
		c-3.3-8.7-4.8-18-4.8-27.8c0-17.1,3.8-30.2,11.1-39.4c7.6-9.1,17-13.8,28.4-13.8s20.7,4.5,28.4,13.1s11.2,20.6,11.2,35.5v23.7
		h-30.7v-17.5c0-18.6-2.9-27.9-8.8-27.9c-2.5,0-4.6,1.5-5.5,4.1c-1.3,2.6-1.6,7.9-1.6,15.3c0,8.9,2.4,18.1,7.5,27.4
		c4.8,9.3,10.4,17.5,16.3,24.4c5.8,7.1,11.1,16,16.2,27c4.8,11.1,7.4,22.3,7.4,34c0,17.1-3.8,30.2-11.1,39.3
		c-7.6,9.1-17.1,13.7-28.6,13.7s-20.7-4.5-28.3-13.1c-7.6-8.6-11.1-20.6-11.1-35.4L258.9,220.8L258.9,220.8z"/>
	<path class="st0" d="M579.5,304.7V69.5h37c8.4,0,16,1.7,22.5,5.5c6.5,3.8,12.4,9.9,17.7,18.5c5.3,8.6,9.6,20.7,12.4,36.5
		c2.9,15.6,4.5,34.6,4.5,57.1s-1.6,41.5-4.5,57.2c-2.9,15.7-7.1,27.8-12.4,36.5c-5.3,8.5-11.2,14.6-17.7,18.4
		c-6.5,3.8-14.1,5.5-22.5,5.5L579.5,304.7L579.5,304.7z M616.6,272.6h1.6c1.9,0,3.6-0.5,4.8-1.4c1.4-1,2.6-2.9,4.2-6.1
		c1.6-3.2,2.5-7.9,3.4-13.9c0.8-5.9,1.6-14.3,1.9-25.2c0.6-11,0.9-23.9,0.9-39.2s-0.3-28.2-0.9-39.2c-0.6-11-1.3-19.3-1.9-25.2
		c-0.8-5.9-1.8-10.6-3.4-13.9c-1.6-3.3-2.8-5.3-4.2-6.2c-1.4-1-2.8-1.4-4.8-1.4h-1.6V272.6L616.6,272.6z"/>
	<path class="st0" d="M230.1,118.9h22.4V98h-42.9l-14.3,14.4v149.3l14.3,14.3h42.9v-19.6H230c-5.3,0-9.7-4.5-9.7-9.7v-48.4h24.5
		v-25.3h-24.5v-44.5C220.3,123.4,224.7,118.9,230.1,118.9L230.1,118.9z"/>
	<path class="st0" d="M449.7,123.3h21V98h-42.9l-14.4,14.4v149.3l14.3,14.3h42.9v-25h-21c-5.3,0-9.7-4.5-9.7-9.7v-42.9h23.3v-25.3
		h-23.3v-40C440,127.8,444.4,123.3,449.7,123.3L449.7,123.3z"/>
	<polygon class="st0" points="530.4,81.1 537.5,200.7 533.5,201.2 513.9,86.8 492.4,86.8 479.6,98 479.6,276.1 490.6,285.5 
		513.9,285.5 507.4,169.8 509.5,169.7 530.4,293 564.5,293 564.5,81.1 	"/>
	<path class="st0" d="M381.9,218.9c0,7.6-0.3,13.3-0.8,17.1c-0.5,3.9-1.1,6.2-1.6,7.2c-0.7,1-1.6,1.5-2.8,1.5c-1.4,0-2.2-1-3.1-2.6
		c-0.9-1.6-1.6-7.2-2.1-16c-0.5-5.9-0.8-13.7-1-23.1c-0.1-4.8-0.1-10-0.1-15.6c0-5.6,0-11.1,0.1-16.1c0.2-9.2,0.5-16.8,1-22.6
		c0.8-8.9,1.6-14.3,2.1-16c0.9-1.6,1.7-2.6,3.1-2.6s2.1,0.5,2.8,1.5c0.7,1,1.3,3.3,1.6,7.2c0.5,3.9,0.8,9.5,0.8,17.1l0.1,17.5h23.4
		v-20.1c0-14.1-2.5-24.5-7.9-31.7c-5.1-7.2-11.7-10.8-20-10.8c-4.8,0-9,1.2-12.8,3.4c-3.8,2.2-7.3,6.1-10.4,11.4
		c-3.1,5.4-5.4,13.4-7.3,23.8c-1.3,7.5-1.9,15.9-2.2,25.6c-0.2,4-0.2,7.9-0.2,12.2c0,4.4,0.1,7.9,0.2,11.6
		c0.4,9.9,1.2,18.5,2.3,26.1c1.6,10.4,4.2,18.1,7.3,23.8c3.1,5.4,6.5,9.3,10.3,11.4c3.8,2.2,7.9,3.4,12.9,3.4
		c7.9,0,14.6-3.6,20-10.8s7.9-17.5,7.9-31.7v-22.9h-23.6V218.9L381.9,218.9z"/>
	<path class="st0" d="M93.2,213.8c0,6.3-0.2,11.1-0.7,14.3c-0.4,3.2-0.9,5.1-1.5,5.9c-0.6,0.8-1.4,1.2-2.3,1.2
		c-1.2,0-1.8-0.8-2.6-2.1c-0.7-1.6-1.4-5.9-1.7-13.5c-0.4-4.8-0.7-11.3-0.8-19.3c-0.1-4.1-0.1-8.2-0.1-13.2s0-9.4,0.1-13.6
		c0.1-7.8,0.4-14.2,0.8-18.9c0.6-7.6,1.3-11.9,1.7-13.5c0.6-1.6,1.6-2.1,2.6-2.1c1.2,0,1.7,0.4,2.3,1.3c0.6,0.9,1.1,2.7,1.5,5.9
		c0.4,3.2,0.7,7.9,0.7,14.3l0.1,12.7h19.6v-14.3c0-11.7-2.1-20.6-6.5-26.7c-4.5-6-9.9-8.9-16.8-8.9c-4.1,0-7.7,1-10.8,2.8
		c-3.2,1.8-6,5-8.6,9.7c-2.6,4.7-4.8,11.1-6,19.9c-1.1,6.2-1.6,13.4-1.8,21.4c-0.1,3.3-0.2,6.7-0.2,10.3s0.1,6.7,0.2,9.9
		c0.3,8.1,1,15.5,1.8,21.8c1.6,8.6,3.5,15.2,6,19.9c2.6,4.7,5.4,7.9,8.5,9.7c3.1,1.8,6.7,2.8,10.9,2.8c6.8,0,12.3-3,16.8-8.9
		c4.5-5.9,6.5-14.7,6.5-26.7v-17.4H93.1L93.2,213.8L93.2,213.8z"/>
	<path d="M271,384.6h-2.9v5.7h-3V375h5.9c3.2,0,4.9,2.1,4.9,4.8C276.2,382.4,274.2,384.6,271,384.6L271,384.6z M270.8,377.6H268v4.3
		h2.8c1.5,0,2.1-0.9,2.1-2C273.2,378.6,272.2,377.6,270.8,377.6L270.8,377.6z"/>
	<path d="M287.8,390.3l-3-6.1h-2.1v6.1h-3V375h6c3.1,0,4.8,2,4.8,4.8c0,2.1-1.4,3.5-2.8,4.1l3.5,6.6L287.8,390.3L287.8,390.3z
		 M285.6,377.6h-2.8v4.1h2.8c1.4,0,2.1-0.9,2.1-1.9C287.7,378.6,286.8,377.6,285.6,377.6z"/>
	<path d="M294.9,390.3V375H305v2.6h-7.2v3.6h6v2.6h-6v3.8h7.2v2.6L294.9,390.3L294.9,390.3z"/>
	<path d="M313.3,390.4c-2.2,0-4.2-0.5-5.5-1.9l1.8-1.8c1.1,1.1,2.2,1.4,3.8,1.4c1.6,0,2.7-0.7,2.7-1.8c0-0.6-0.2-1.1-0.5-1.4
		s-0.7-0.5-1.5-0.6l-1.7-0.3c-1.4-0.2-2.2-0.7-3-1.4c-0.8-0.8-1.2-1.6-1.2-3c0-2.7,1.9-4.8,5.3-4.8c2,0,3.7,0.6,4.8,1.7l-1.8,1.8
		c-1.1-1-2-1.2-3.1-1.2c-1.6,0-2.3,1-2.3,1.8c0,0.4,0.1,0.9,0.5,1.2c0.3,0.3,0.9,0.6,1.6,0.7l1.7,0.3c1.5,0.2,2.2,0.6,2.9,1.3
		c0.9,0.9,1.3,1.8,1.3,3.3C318.9,388.8,316.5,390.4,313.3,390.4L313.3,390.4z"/>
	<path d="M322.9,390.3V375h10.2v2.6h-7.2v3.6h6v2.6h-6v3.8h7.2v2.6L322.9,390.3L322.9,390.3z"/>
	<path d="M346.1,390.3l-6.1-9.4v9.4h-3V375h2.6l6.1,9.4V375h3v15.3H346.1z"/>
	<path d="M359.2,377.6v12.7h-3v-12.7h-4.1V375h11.1v2.6H359.2L359.2,377.6z"/>
	<path d="M366.8,390.3V375H377v2.6h-7.2v3.6h6v2.6h-6v3.8h7.2v2.6L366.8,390.3L366.8,390.3z"/>
	<path d="M390.6,388.8c-1.1,1.1-2.4,1.6-4.1,1.6H381v-15.3h5.5c1.6,0,3,0.5,4.1,1.6c1.6,1.6,1.6,3.9,1.6,6.1
		C392.1,384.9,392.3,387.1,390.6,388.8L390.6,388.8z M388.4,378.7c-0.6-0.7-1.3-1-2.2-1H384v10h2.2c1.1,0,1.6-0.4,2.2-1
		c0.6-0.8,0.7-1.7,0.7-4.2C389.1,380.4,389,379.2,388.4,378.7L388.4,378.7z"/>
	<path d="M408.8,390.3h-6.4V375h6.2c3,0,4.8,1.6,4.8,4.4c0,1.6-1.2,2.8-1.8,3.2c1,0.5,2,1.5,2,3.5
		C413.4,388.8,411.5,390.3,408.8,390.3L408.8,390.3z M408.3,377.6h-2.9v3.6h2.9c1.4,0,1.9-0.8,1.9-1.6
		C410.2,378.7,409.6,377.6,408.3,377.6L408.3,377.6z M408.5,383.8h-3.1v3.8h3.1c1.5,0,1.9-0.9,1.9-1.8
		C410.4,384.8,409.8,383.8,408.5,383.8L408.5,383.8z"/>
	<path d="M423.4,384v6.3h-3V384l-4.7-9h3.3l2.8,6.2l2.8-6.2h3.3L423.4,384L423.4,384z"/>
	<path d="M458.9,408.9c0,2.3,0.6,4.3,2.4,4.3c0.9,0,1.6-0.5,1.7-1.1v-1.6l-1.4-0.1v-1.3h4.7v1.3l-1,0.1v3.8h-1.3
		c-0.1-0.3-0.2-0.6-0.6-0.6c-0.5,0-1.3,0.8-2.7,0.8c-2.9,0-4.8-1.6-4.8-5.3c0-3.8,2.1-5.4,5-5.4c1.5,0,1.8,0.6,2.3,0.6
		c0.2,0,0.3-0.2,0.5-0.5h1.1l0.1,3.5h-1.2c-0.5-1.6-1.3-2.4-2.6-2.4C459.7,404.6,458.8,406.2,458.9,408.9L458.9,408.9z"/>
	<path d="M470.7,406.5c1.8,0,3.2,1.1,3.2,3.3c0,0.2,0,0.7,0,0.9h-4.5c0,1.5,0.4,2.4,1.6,2.4c1,0,1.5-0.6,1.6-1.5l1.2,0.4
		c-0.5,1.5-1.6,2.1-3.2,2.1c-2.4,0-3.8-1.6-3.8-3.8C467,407.9,468.7,406.5,470.7,406.5L470.7,406.5z M471.7,409.6v-0.3
		c0-1.5-0.2-1.8-1.1-1.8c-1,0-1.3,1.1-1.3,2.1L471.7,409.6L471.7,409.6z"/>
	<path d="M477.9,406.6l0.1,1.6h0.1c0.4-0.8,1.1-1.6,2.5-1.6s2.2,0.8,2.2,2.4v4.2l1,0.1v1.1h-4v-1.1l0.8-0.1v-3.8
		c0-0.9-0.1-1.5-1-1.5s-1.6,0.5-1.6,1.6v3.5l0.8,0.1v1.1h-4.1v-1.1l1-0.1v-5.1l-1-0.1v-1.1L477.9,406.6L477.9,406.6z"/>
	<path d="M488.4,406.5c1.8,0,3.2,1.1,3.2,3.3c0,0.2,0,0.7,0,0.9H487c0,1.5,0.4,2.4,1.6,2.4c1,0,1.5-0.6,1.6-1.5l1.2,0.4
		c-0.5,1.5-1.6,2.1-3.2,2.1c-2.4,0-3.8-1.6-3.8-3.8C484.6,407.9,486.1,406.5,488.4,406.5L488.4,406.5z M489.2,409.6v-0.3
		c0-1.5-0.2-1.8-1.1-1.8c-1,0-1.3,1.1-1.3,2.1L489.2,409.6L489.2,409.6z"/>
	<path d="M498.7,408.2h3.7v-3.3l-1.1-0.1v-1.3h4.5v1.3l-1.1,0.1v7.9l1.1,0.1v1.3h-4.5V413l1.1-0.1v-3.4h-3.7v3.4l1.1,0.1v1.3h-4.6
		V413l1.1-0.1v-7.9l-1.1-0.1v-1.3h4.6v1.3l-1.1,0.1V408.2L498.7,408.2z"/>
	<path d="M511.1,410.3v-1.1c0-1.3-0.3-1.7-1.5-1.7c-0.5,0-0.9,0.1-0.9,0.5c0,0.1,0,0.2,0,0.2h0.6c0,0.2,0.1,0.4,0.1,0.6
		c0,0.7-0.4,1.1-1.3,1.1c-0.9,0-1.3-0.6-1.3-1.3c0-1.3,1.2-1.9,3-1.9c1.8,0,3.1,0.7,3.1,2.8v3.1c0,0.6,0,0.9,0.4,0.9
		c0.1,0,0.3,0,0.5-0.1l0.2,0.8c-0.3,0.2-1,0.5-1.6,0.5c-1.1,0-1.5-0.4-1.6-1.2c-0.3,0.5-0.9,1.2-2,1.2c-1.3,0-2.1-0.6-2.1-1.8
		c0-1.6,1.3-2,3.1-2L511.1,410.3L511.1,410.3z M511.1,412v-1h-0.6c-1,0-1.3,0.4-1.3,1.3c0,0.8,0.3,1.1,0.9,1.1
		C510.6,413.2,511.1,412.9,511.1,412L511.1,412z"/>
	<path d="M519.1,410.3v-1.1c0-1.3-0.3-1.7-1.5-1.7c-0.5,0-0.9,0.1-0.9,0.5c0,0.1,0,0.2,0,0.2h0.6c0,0.2,0.1,0.4,0.1,0.6
		c0,0.7-0.4,1.1-1.3,1.1c-0.9,0-1.3-0.6-1.3-1.3c0-1.3,1.2-1.9,3-1.9s3.1,0.7,3.1,2.8v3.1c0,0.6,0,0.9,0.4,0.9c0.1,0,0.3,0,0.5-0.1
		l0.2,0.8c-0.3,0.2-1,0.5-1.6,0.5c-1.1,0-1.5-0.4-1.6-1.2c-0.3,0.5-0.9,1.2-2,1.2c-1.3,0-2.1-0.6-2.1-1.8c0-1.6,1.3-2,3.1-2
		L519.1,410.3L519.1,410.3z M519.1,412v-1h-0.6c-1,0-1.3,0.4-1.3,1.3c0,0.8,0.3,1.1,0.9,1.1C518.6,413.2,519.1,412.9,519.1,412
		L519.1,412z"/>
	<path d="M523.2,411.7h1c0.3,1,1.1,1.6,2.1,1.6c0.9,0,1.4-0.3,1.4-0.9c0-0.7-0.7-0.9-1.6-1c-1.4-0.2-2.8-0.5-2.8-2.4
		c0-1.6,1.3-2.5,2.7-2.5c0.7,0,1.2,0.2,1.5,0.4c0.1,0.1,0.2,0.1,0.3,0.1c0.2,0,0.2-0.1,0.3-0.4h0.9v2.2h-1c-0.4-1.1-1-1.6-1.7-1.6
		c-0.6,0-1.3,0.2-1.3,0.9c0,0.7,0.7,0.8,1.6,1c1.4,0.3,2.8,0.6,2.8,2.5c0,1.6-1.2,2.6-2.7,2.6c-1,0-1.6-0.3-1.7-0.5
		c-0.1,0-0.2-0.1-0.3-0.1c-0.2,0-0.2,0.1-0.3,0.5h-0.9L523.2,411.7L523.2,411.7z"/>
	<path d="M540.4,403.7l0.2,2.7h-0.5c-0.4-1.7-1-2.1-2.4-2.1H536v4.5h1c1.4,0,1.6-0.5,1.7-1.7h0.4v4.5h-0.4c-0.3-1.6-0.5-1.9-1.9-1.9
		H536v4.5l2,0.1v0.5h-4.6v-0.5l1.4-0.1v-9.3l-1.4-0.1v-0.5L540.4,403.7L540.4,403.7z"/>
	<path d="M544.7,406.6c2,0,3.2,1.6,3.2,3.9c0,2.3-1.4,4-3.3,4c-1.9,0-3.3-1.6-3.3-3.9C541.3,408.2,542.9,406.6,544.7,406.6
		L544.7,406.6z M544.7,407.3c-1.6,0-1.9,1.6-1.9,3.1s0.4,3.3,2,3.3c1.6,0,1.9-1.6,1.9-3.1S546.3,407.3,544.7,407.3z"/>
	<path d="M551.1,411.9c0,1.2,0.3,1.6,1.6,1.6c1.3,0,2.1-0.8,2.1-2v-4.1l-1.2-0.1v-0.6l2.1-0.1v6.9l1.1,0.1v0.6h-1.7l-0.1-1.4
		c-0.5,0.8-1.5,1.5-2.5,1.5c-1.6,0-2.2-0.9-2.2-2.4v-4.6l-1.1-0.1v-0.6l2-0.1L551.1,411.9L551.1,411.9z"/>
	<path d="M559.9,406.7l0.1,1.5c0.5-0.8,1.4-1.6,2.6-1.6c1.6,0,2.2,0.9,2.2,2.5v4.5l1.1,0.1v0.5h-3.2v-0.5l1.2-0.1v-4.4
		c0-1.3-0.3-1.6-1.6-1.6c-1.3,0-2.1,0.9-2.1,1.9v4.3l1.2,0.1v0.5H558v-0.5l1.1-0.1v-6.2l-1.1-0.2v-0.5L559.9,406.7L559.9,406.7z"/>
	<path d="M572.3,407.6v-4l-1.4-0.1V403l2.3-0.1v10.7l1.2,0.1v0.5h-2l-0.1-1.3c-0.4,0.7-1.2,1.5-2.4,1.5c-1.8,0-2.8-1.6-2.8-3.8
		c0-2.5,1.4-4.1,3.2-4.1C571,406.6,571.7,406.8,572.3,407.6L572.3,407.6z M572.3,411.5v-2.3c0-1.5-1.1-1.8-1.8-1.8
		c-1.6,0-2,1.4-2,3.1c0,1.6,0.3,3.1,1.8,3.1C571.3,413.5,572.3,412.6,572.3,411.5L572.3,411.5z"/>
	<path d="M579.7,410.3v-1.1c0-1.5-0.4-2-1.6-2c-0.5,0-1.5,0.1-1.5,0.7c0,0.1,0,0.1,0,0.2h0.5c0,0.2,0.1,0.4,0.1,0.6
		c0,0.5-0.4,0.8-0.8,0.8c-0.5,0-0.9-0.3-0.9-0.9c0-1.1,1.1-1.7,2.5-1.7c1.7,0,2.4,0.9,2.4,2.8v3.5c0,0.8,0.1,0.9,0.6,0.9
		c0.2,0,0.4,0,0.5-0.1l0.1,0.5c-0.3,0.1-0.6,0.2-0.9,0.2c-0.8,0-1.3-0.3-1.4-1.2c-0.6,0.8-1.5,1.2-2.1,1.2c-1.3,0-2-0.6-2-1.8
		c0-1.6,1.5-2.1,3.2-2.1L579.7,410.3L579.7,410.3z M579.7,412v-1.3h-1.1c-1.6,0-1.9,0.7-1.9,1.6s0.4,1.4,1.4,1.4
		C578.8,413.7,579.7,413.1,579.7,412z"/>
	<path d="M583.3,407.4h-1.2v-0.7h1.2v-1.8l1-0.3h0.2v2.2h1.6v0.7h-1.6v4.9c0,0.9,0.3,1.3,0.9,1.3s0.9-0.2,1.2-1.2l0.6,0.2
		c-0.3,1.3-1,1.6-1.7,1.6c-1.3,0-1.6-0.6-1.6-1.6v-5.3H583.3z"/>
	<path d="M590,406.7v6.9l1.3,0.1v0.5h-3.4v-0.5l1.2-0.1v-6.2l-1.3-0.1v-0.5L590,406.7z M589.2,403.3c0.5,0,0.8,0.2,0.8,0.9
		c0,0.5-0.3,0.8-0.8,0.8c-0.6,0-0.8-0.3-0.8-0.8C588.4,403.7,588.7,403.3,589.2,403.3L589.2,403.3z"/>
	<path d="M595.5,406.6c2,0,3.2,1.6,3.2,3.9c0,2.3-1.4,4-3.3,4c-1.9,0-3.3-1.6-3.3-3.9C592.1,408.2,593.6,406.6,595.5,406.6
		L595.5,406.6z M595.4,407.3c-1.6,0-1.9,1.6-1.9,3.1s0.4,3.3,2,3.3c1.6,0,1.9-1.6,1.9-3.1S597.1,407.3,595.4,407.3z"/>
	<path d="M602,406.7l0.1,1.5c0.5-0.8,1.4-1.6,2.6-1.6c1.6,0,2.2,0.9,2.2,2.5v4.5l1.1,0.1v0.5h-3.2v-0.5l1.2-0.1v-4.4
		c0-1.3-0.3-1.6-1.6-1.6c-1.3,0-2.1,0.9-2.1,1.9v4.3l1.2,0.1v0.5h-3.2v-0.5l1.1-0.1v-6.2l-1.1-0.1V407L602,406.7L602,406.7z"/>
	<polygon points="493.5,355.5 481.2,376.9 456.2,376.9 451.5,384.8 476.5,384.9 471.4,393.9 480.4,393.9 502.6,355.5 	"/>
	<polygon points="511.8,355.5 499.5,376.9 492.8,376.9 488.4,384.8 495.1,384.9 489.7,393.9 498.8,393.9 521,355.5 	"/>
	<polygon points="525.4,355.5 503.2,393.9 512.3,393.9 534.4,355.5 	"/>
	<polygon points="551.8,355.5 535.8,383.2 535.8,357.7 528,370.8 528,376.9 524.4,376.9 520,384.8 528,384.9 528,393.9 538.8,393.9 
		560.9,355.5 	"/>
	<path d="M583.5,363.6h24.9l4.8-8h-33.3c-1.6,0-3,0.9-3.9,2.1l-8.9,15.4c-1.4,2.2,0.3,5,2.9,5h11.9l-4.1,6.7
		c-0.4,0.7-1.2,1.1-1.7,1.1h-13.8v-28.2l-7.8,13.2v5.9v0.1h-3.4l-4.7,7.9h8v9h5.8h19.1c1.6,0,3-0.9,3.9-2.1l9.5-16.3
		c1.4-2.2-0.3-5-2.9-5h-11.4l3.4-5.7C582.2,364,582.8,363.6,583.5,363.6L583.5,363.6z"/>
</g>
</svg>
